<svg viewBox="0 0 800 300" xmlns="http://www.w3.org/2000/svg">
  <defs>
    <!-- Advanced Gradients -->
    <linearGradient id="mainGrad" x1="0%" y1="0%" x2="100%" y2="100%">
      <stop offset="0%" style="stop-color:#6366f1;stop-opacity:1" />
      <stop offset="50%" style="stop-color:#7c3aed;stop-opacity:1" />
      <stop offset="100%" style="stop-color:#a855f7;stop-opacity:1" />
    </linearGradient>

    <linearGradient id="accentGrad" x1="100%" y1="0%" x2="0%" y2="100%">
      <stop offset="0%" style="stop-color:#ec4899;stop-opacity:1" />
      <stop offset="50%" style="stop-color:#f97316;stop-opacity:1" />
      <stop offset="100%" style="stop-color:#fbbf24;stop-opacity:1" />
    </linearGradient>

    <radialGradient id="glowGrad" cx="50%" cy="50%" r="50%">
      <stop offset="0%" style="stop-color:#818cf8;stop-opacity:0.4" />
      <stop offset="100%" style="stop-color:#6366f1;stop-opacity:0" />
    </radialGradient>

    <!-- Filters -->
    <filter id="deepShadow">
      <feGaussianBlur in="SourceAlpha" stdDeviation="3"/>
      <feOffset dx="0" dy="2" result="offsetblur"/>
      <feComponentTransfer>
        <feFuncA type="linear" slope="0.3"/>
      </feComponentTransfer>
      <feMerge>
        <feMergeNode/>
        <feMergeNode in="SourceGraphic"/>
      </feMerge>
    </filter>

    <filter id="glow">
      <feGaussianBlur stdDeviation="2" result="coloredBlur"/>
      <feMerge>
        <feMergeNode in="coloredBlur"/>
        <feMergeNode in="SourceGraphic"/>
      </feMerge>
    </filter>
  </defs>

  <!-- Background -->
  <rect width="800" height="300" fill="#f8f7ff"/>

  <!-- Decorative background elements -->
  <circle cx="80" cy="80" r="100" fill="url(#glowGrad)" filter="url(#glow)"/>
  <circle cx="720" cy="220" r="80" fill="url(#glowGrad)" filter="url(#glow)" opacity="0.6"/>

  <!-- Main Logo Container -->
  <g filter="url(#deepShadow)">

    <!-- STAGE 1: PRETRAINING (Left) - Scattered/Raw Data -->
    <g filter="url(#glow)">
      <!-- Raw data blocks -->
      <rect x="40" y="90" width="18" height="18" fill="url(#mainGrad)" opacity="0.85" rx="2"/>
      <rect x="50" y="100" width="20" height="20" fill="url(#mainGrad)" opacity="0.75" rx="2"/>
      <rect x="30" y="115" width="22" height="16" fill="url(#mainGrad)" opacity="0.7" rx="2"/>
      <rect x="55" y="120" width="18" height="18" fill="url(#mainGrad)" opacity="0.8" rx="2"/>
      <rect x="45" y="140" width="20" height="20" fill="url(#mainGrad)" opacity="0.75" rx="2"/>
      <rect x="60" y="105" width="16" height="22" fill="url(#mainGrad)" opacity="0.78" rx="2"/>
    </g>

    <!-- STAGE 2: INSTRUCTION TUNING (Center) - Organized Structure -->
    <g filter="url(#glow)">
      <!-- Organized layers - representing structured data -->
      <rect x="280" y="50" width="80" height="18" fill="url(#accentGrad)" opacity="1" rx="3"/>
      <rect x="280" y="75" width="80" height="18" fill="url(#accentGrad)" opacity="0.95" rx="3"/>
      <rect x="280" y="100" width="80" height="18" fill="url(#accentGrad)" opacity="1" rx="3"/>
      <rect x="280" y="125" width="80" height="18" fill="url(#accentGrad)" opacity="0.98" rx="3"/>
      <rect x="280" y="150" width="80" height="18" fill="url(#accentGrad)" opacity="1" rx="3"/>
      <rect x="280" y="175" width="80" height="18" fill="url(#accentGrad)" opacity="0.96" rx="3"/>
      <rect x="280" y="200" width="80" height="18" fill="url(#accentGrad)" opacity="1" rx="3"/>
      <rect x="280" y="225" width="80" height="18" fill="url(#accentGrad)" opacity="0.95" rx="3"/>

      <!-- Central glow -->
      <circle cx="320" cy="137" r="55" fill="url(#mainGrad)" opacity="0.15" filter="url(#glow)"/>
    </g>

    <!-- STAGE 3: INFERENCE (Right) - Consolidated/Output -->
    <g filter="url(#glow)">
      <!-- Organized output blocks - growing upward -->
      <rect x="540" y="150" width="28" height="28" fill="url(#mainGrad)" opacity="1" rx="3"/>
      <rect x="535" y="115" width="38" height="38" fill="url(#mainGrad)" opacity="0.95" rx="3"/>
      <rect x="530" y="75" width="48" height="48" fill="url(#mainGrad)" opacity="0.98" rx="3"/>
      <rect x="525" y="30" width="58" height="58" fill="url(#mainGrad)" opacity="1" rx="3" filter="url(#glow)"/>

      <!-- Arrow-like indicator -->
      <polygon points="575,170 590,155 570,150" fill="url(#accentGrad)" opacity="0.85"/>
    </g>

    <!-- FLOW ARROWS - Showing progression -->
    <defs>
      <marker id="arrowHead" markerWidth="10" markerHeight="10" refX="9" refY="3" orient="auto">
        <polygon points="0 0, 10 3, 0 6" fill="url(#accentGrad)" opacity="0.85"/>
      </marker>
    </defs>

    <!-- Arrow from Pretrain to Instruction Tuning -->
    <path d="M 85 120 Q 170 120 280 120" stroke="url(#accentGrad)" stroke-width="3" fill="none"
          marker-end="url(#arrowHead)" opacity="0.75" stroke-linecap="round"/>

    <!-- Arrow from Instruction Tuning to Inference -->
    <path d="M 360 120 Q 440 120 530 120" stroke="url(#accentGrad)" stroke-width="3" fill="none"
          marker-end="url(#arrowHead)" opacity="0.75" stroke-linecap="round"/>

    <!-- Connection dots -->
    <circle cx="170" cy="120" r="5" fill="url(#accentGrad)" opacity="0.65" filter="url(#glow)"/>
    <circle cx="450" cy="120" r="5" fill="url(#accentGrad)" opacity="0.65" filter="url(#glow)"/>

    <!-- Data flow particles -->
    <g fill="url(#accentGrad)" opacity="0.4">
      <circle cx="130" cy="115" r="2"/>
      <circle cx="210" cy="122" r="1.5"/>
      <circle cx="390" cy="118" r="1.5"/>
      <circle cx="490" cy="125" r="2"/>
    </g>

  </g>

  <!-- Top highlight for depth -->
  <ellipse cx="400" cy="30" rx="150" ry="40" fill="white" opacity="0.06"/>
</svg>
